<?xml version="1.0" encoding="UTF-8"?>
<svg id="Layer_1" data-name="Layer 1" xmlns="http://www.w3.org/2000/svg" xmlns:xlink="http://www.w3.org/1999/xlink" viewBox="0 0 75 75">
  <defs>
    <style>
      .cls-1, .cls-2, .cls-3 {
        fill: none;
      }

      .cls-4 {
        fill: #1e50a0;
      }

      .cls-4, .cls-2 {
        stroke-linecap: round;
        stroke-linejoin: round;
        stroke-width: 2px;
      }

      .cls-4, .cls-2, .cls-3 {
        stroke: #1e50a0;
      }

      .cls-5 {
        clip-path: url(#clippath);
      }

      .cls-3 {
        stroke-miterlimit: 10;
        stroke-width: 2.5px;
      }
    </style>
    <clipPath id="clippath">
      <path class="cls-1" d="M42.69,44.84l27.4-27.4-2.05,27.4-16.62,22.31-21.65,3.66s-16.36-5.17-16.79-5.17S2.11,47.67,2.11,47.67l1.94-16.36s8.29-15.26,9.15-15.92,14.42-9.48,14.96-9.48,14.1-1.72,14.1-1.72l12.38,8.82-21.88,21.88,9.95,9.95Z"/>
    </clipPath>
  </defs>
  <g class="cls-5">
    <path class="cls-3" d="M40.48,62.53l-5.42-.02-.93-4.18-7.75-3.17-3.42,2.35-3.8-3.81,2.33-3.66c-1.25-2.64-2.08-4.64-3.07-7.5l-4.25-1.07-.11-5.48,4.24-.66c1.07-2.87,1.9-4.87,3.19-7.68l-2.34-3.56,3.88-3.87,3.59,2.39c2.53-1.28,4.68-2.18,7.39-3.06.39-.84.64-2.65.79-4.14h5.92s.55,3.99.55,3.99c2.78,1.01,4.91,1.89,7.63,3.15l3.73-2.29,3.7,3.71-2.29,3.73c1.2,2.51,2.08,4.62,3.03,7.42l4.06.79.36,5.58-4.23.94-3.18,7.64,2.3,3.65-3.79,3.77-3.54-2.33-7.65,3.19-.89,4.18ZM50.92,38.84c0-7.27-5.9-13.17-13.17-13.17s-13.17,5.9-13.17,13.17,5.9,13.17,13.17,13.17,13.17-5.9,13.17-13.17Z"/>
  </g>
  <g>
    <rect class="cls-2" x="47.39" y="8.53" width="8.07" height="36.2" transform="translate(33.89 -28.56) rotate(45)"/>
    <polygon class="cls-4" points="33.8 44.24 41.48 42.28 35.77 36.57 33.8 44.24"/>
    <path class="cls-4" d="M64.68,11h1.43c1.83,0,3.32,1.49,3.32,3.32h-8.07c0-1.83,1.49-3.32,3.32-3.32Z" transform="translate(28.1 -42.53) rotate(45)"/>
  </g>
</svg>