<?xml version="1.0" encoding="UTF-8"?>
<svg id="Layer_1" data-name="Layer 1" xmlns="http://www.w3.org/2000/svg" viewBox="0 0 75 75">
  <defs>
    <style>
      .cls-1 {
        stroke-width: 2.24px;
      }

      .cls-1, .cls-2 {
        fill: none;
        stroke: #1e50a0;
        stroke-linecap: round;
        stroke-linejoin: round;
      }

      .cls-2 {
        stroke-width: 1.44px;
      }
    </style>
  </defs>
  <g>
    <path class="cls-2" d="M60.43,13.5H19.64c-1.57,0-2.85,1.27-2.85,2.85v14.38h-4.43v6.08h4.43v4.56h-5.07v7.09h5.07v10.2c0,1.57,1.27,2.85,2.85,2.85h9.06v-5.7h8.36v5.7h23.37c1.57,0,2.85-1.27,2.85-2.85V16.35c0-1.57-1.27-2.85-2.85-2.85Z"/>
    <rect class="cls-2" x="30.72" y="31.61" width="12.79" height="13.55"/>
    <g>
      <line class="cls-2" x1="33.68" y1="31.61" x2="33.68" y2="28.23"/>
      <line class="cls-2" x1="37.12" y1="31.61" x2="37.12" y2="28.23"/>
      <line class="cls-2" x1="40.88" y1="31.61" x2="40.88" y2="28.23"/>
    </g>
    <g>
      <line class="cls-2" x1="33.68" y1="48.55" x2="33.68" y2="45.16"/>
      <line class="cls-2" x1="37.12" y1="48.55" x2="37.12" y2="45.16"/>
      <line class="cls-2" x1="40.88" y1="48.55" x2="40.88" y2="45.16"/>
    </g>
    <g>
      <line class="cls-2" x1="44.05" y1="34.79" x2="47.44" y2="34.79"/>
      <line class="cls-2" x1="44.05" y1="38.23" x2="47.44" y2="38.23"/>
      <line class="cls-2" x1="44.05" y1="41.99" x2="47.44" y2="41.99"/>
    </g>
    <g>
      <line class="cls-2" x1="27.12" y1="34.79" x2="30.5" y2="34.79"/>
      <line class="cls-2" x1="27.12" y1="38.23" x2="30.5" y2="38.23"/>
      <line class="cls-2" x1="27.12" y1="41.99" x2="30.5" y2="41.99"/>
    </g>
    <g>
      <polyline class="cls-2" points="23.56 13.5 23.56 22.1 27.12 22.1"/>
      <circle class="cls-2" cx="29.52" cy="22.1" r="2.18"/>
    </g>
    <g>
      <polyline class="cls-2" points="62.63 34.31 54.03 34.31 54.03 37.87"/>
      <circle class="cls-2" cx="54.03" cy="40.28" r="2.18"/>
    </g>
    <g>
      <polyline class="cls-2" points="62.63 48.55 54.03 48.55 54.03 52.1"/>
      <circle class="cls-2" cx="54.03" cy="54.51" r="2.18"/>
    </g>
  </g>
  <g>
    <g>
      <path class="cls-1" d="M60.43,13.5H19.64c-1.57,0-2.85,1.27-2.85,2.85v14.38h-4.43v6.08h4.43v4.56h-5.07v7.09h5.07v10.2c0,1.57,1.27,2.85,2.85,2.85h9.06v-5.7h8.36v5.7h23.37c1.57,0,2.85-1.27,2.85-2.85V16.35c0-1.57-1.27-2.85-2.85-2.85Z"/>
      <path class="cls-1" d="M60.43,13.5H19.64c-1.57,0-2.85,1.27-2.85,2.85v14.38h-4.43v6.08h4.43v4.56h-5.07v7.09h5.07v10.2c0,1.57,1.27,2.85,2.85,2.85h9.06v-5.7h8.36v5.7h23.37c1.57,0,2.85-1.27,2.85-2.85V16.35c0-1.57-1.27-2.85-2.85-2.85Z"/>
    </g>
    <g>
      <rect class="cls-1" x="30.72" y="31.61" width="12.79" height="13.55"/>
      <rect class="cls-1" x="30.72" y="31.61" width="12.79" height="13.55"/>
    </g>
    <g>
      <g>
        <line class="cls-1" x1="33.68" y1="31.61" x2="33.68" y2="28.23"/>
        <line class="cls-1" x1="33.68" y1="31.61" x2="33.68" y2="28.23"/>
      </g>
      <g>
        <line class="cls-1" x1="37.12" y1="31.61" x2="37.12" y2="28.23"/>
        <line class="cls-1" x1="37.12" y1="31.61" x2="37.12" y2="28.23"/>
      </g>
      <g>
        <line class="cls-1" x1="40.88" y1="31.61" x2="40.88" y2="28.23"/>
        <line class="cls-1" x1="40.88" y1="31.61" x2="40.88" y2="28.23"/>
      </g>
    </g>
    <g>
      <g>
        <line class="cls-1" x1="33.68" y1="48.55" x2="33.68" y2="45.16"/>
        <line class="cls-1" x1="33.68" y1="48.55" x2="33.68" y2="45.16"/>
      </g>
      <g>
        <line class="cls-1" x1="37.12" y1="48.55" x2="37.12" y2="45.16"/>
        <line class="cls-1" x1="37.12" y1="48.55" x2="37.12" y2="45.16"/>
      </g>
      <g>
        <line class="cls-1" x1="40.88" y1="48.55" x2="40.88" y2="45.16"/>
        <line class="cls-1" x1="40.88" y1="48.55" x2="40.88" y2="45.16"/>
      </g>
    </g>
    <g>
      <g>
        <line class="cls-1" x1="44.05" y1="34.79" x2="47.44" y2="34.79"/>
        <line class="cls-1" x1="44.05" y1="34.79" x2="47.44" y2="34.79"/>
      </g>
      <g>
        <line class="cls-1" x1="44.05" y1="38.23" x2="47.44" y2="38.23"/>
        <line class="cls-1" x1="44.05" y1="38.23" x2="47.44" y2="38.23"/>
      </g>
      <g>
        <line class="cls-1" x1="44.05" y1="41.99" x2="47.44" y2="41.99"/>
        <line class="cls-1" x1="44.05" y1="41.99" x2="47.44" y2="41.99"/>
      </g>
    </g>
    <g>
      <g>
        <line class="cls-1" x1="27.12" y1="34.79" x2="30.5" y2="34.79"/>
        <line class="cls-1" x1="27.12" y1="34.79" x2="30.5" y2="34.79"/>
      </g>
      <g>
        <line class="cls-1" x1="27.12" y1="38.23" x2="30.5" y2="38.23"/>
        <line class="cls-1" x1="27.12" y1="38.23" x2="30.5" y2="38.23"/>
      </g>
      <g>
        <line class="cls-1" x1="27.12" y1="41.99" x2="30.5" y2="41.99"/>
        <line class="cls-1" x1="27.12" y1="41.99" x2="30.5" y2="41.99"/>
      </g>
    </g>
    <g>
      <polyline class="cls-1" points="23.56 13.5 23.56 22.1 27.12 22.1"/>
      <circle class="cls-1" cx="29.52" cy="22.1" r="2.18"/>
    </g>
    <g>
      <polyline class="cls-1" points="62.63 34.31 54.03 34.31 54.03 37.87"/>
      <circle class="cls-1" cx="54.03" cy="40.28" r="2.18"/>
    </g>
    <g>
      <polyline class="cls-1" points="62.63 48.55 54.03 48.55 54.03 52.1"/>
      <circle class="cls-1" cx="54.03" cy="54.51" r="2.18"/>
    </g>
  </g>
</svg>